# xmcd
#
# Track frame offsets:
#	150
#	14498
#	33972
#	53506
#	71107
#	82659
#	94840
#	107309
#	117265
#	127113
#	146421
#	160621
#	173424
#	190421
#	206450
#	223150
#	234775
#	253736
#
# Disc length: 3695
#
# Revision: 4
# Processed by: cddbd v1.5.1PL0 Copyright (c) Steve Scherf et al.
# Submitted via: audiograbber 1.80.04
# Normalized: r3:DSETVAR1
#
DISCID=e80e6d12
DTITLE=Various Artist - The Very Best Of Country Volume 6
DYEAR=1996
DGENRE=Country
TTITLE0=Don Williams - Amanda
TTITLE1=Willie Nelson - Georgia On My Mind
TTITLE2=Bellamy Brothers - You Ain't Just Whistling
TTITLE3=Linda Ronstadt - Blue Bayou
TTITLE4=Jim Reeves - Welcome To My World
TTITLE5=Audrey Landers - Once On A Sunday Morning
TTITLE6=Hugo Montenegro - The Good The Bad And The Ugly
TTITLE7=Roy Orbison - Running Scared
TTITLE8=Skeeter Davis - Silver Threads And Golden Needles
TTITLE9=Kris Kristofferson - The Silver Tongued Devil
TTITLE10=Roger Whitaker - Make The World Go Away
TTITLE11=Dobie Grey - Loving The Easy Way
TTITLE12=Floyd Cramer - Georgia On My Mind
TTITLE13=Johnny Cash - Johnny 99
TTITLE14=Emmy Lou Harris - Beneath Still Waters
TTITLE15=Jack Greene - There Goes My Everything
TTITLE16=Alabama - Mountain Music
TTITLE17=Dolly Parton - You Are
EXTD=
EXTT0=Don Williams
EXTT1=Willie Nelson
EXTT2=Bellamy Brothers
EXTT3=Linda Ronstadt
EXTT4=Jim Reeves
EXTT5=Audrey Landers
EXTT6=Hugo Montenegro
EXTT7=Roy Orbison
EXTT8=Skeeter Davis
EXTT9=Kris Kristofferson
EXTT10=Roger Whitaker
EXTT11=Dobie Grey
EXTT12=Floyd Cramer
EXTT13=Johnny Cash
EXTT14=Emmy Lou Harris
EXTT15=Jack Greene
EXTT16=Alabama
EXTT17=Dolly Parton
PLAYORDER=
